<mxfile host="app.diagrams.net" modified="2024-02-08T13:31:21.542Z" agent="Mozilla/5.0 (Windows NT 10.0; Win64; x64) AppleWebKit/537.36 (KHTML, like Gecko) Chrome/121.0.0.0 Safari/537.36 Edg/121.0.0.0" etag="xG_tHacOAHTijaupZvko" version="23.1.1" type="github">
  <diagram name="Page-1" id="SYDHGBXinElKo55Zy_Oz">
    <mxGraphModel dx="786" dy="477" grid="1" gridSize="10" guides="1" tooltips="1" connect="1" arrows="1" fold="1" page="1" pageScale="1" pageWidth="1654" pageHeight="1169" math="0" shadow="0">
      <root>
        <mxCell id="0" />
        <mxCell id="1" parent="0" />
        <mxCell id="ZfUbxT9MrFIy-cwjOznF-13" style="edgeStyle=orthogonalEdgeStyle;rounded=0;orthogonalLoop=1;jettySize=auto;html=1;exitX=0.5;exitY=0.5;exitDx=0;exitDy=20;exitPerimeter=0;entryX=0.5;entryY=0;entryDx=0;entryDy=0;" edge="1" parent="1" source="ZfUbxT9MrFIy-cwjOznF-1" target="ZfUbxT9MrFIy-cwjOznF-2">
          <mxGeometry relative="1" as="geometry" />
        </mxCell>
        <mxCell id="ZfUbxT9MrFIy-cwjOznF-1" value="Start" style="html=1;dashed=0;whiteSpace=wrap;shape=mxgraph.dfd.start;fontSize=11;" vertex="1" parent="1">
          <mxGeometry x="80" y="20" width="140" height="40" as="geometry" />
        </mxCell>
        <mxCell id="ZfUbxT9MrFIy-cwjOznF-14" style="edgeStyle=orthogonalEdgeStyle;rounded=0;orthogonalLoop=1;jettySize=auto;html=1;exitX=0.5;exitY=1;exitDx=0;exitDy=0;entryX=0.5;entryY=0;entryDx=0;entryDy=0;" edge="1" parent="1" source="ZfUbxT9MrFIy-cwjOznF-2" target="ZfUbxT9MrFIy-cwjOznF-3">
          <mxGeometry relative="1" as="geometry" />
        </mxCell>
        <mxCell id="ZfUbxT9MrFIy-cwjOznF-2" value="Input / Selection Screen" style="shape=manualInput;whiteSpace=wrap;html=1;fontSize=11;size=13;spacingTop=7;" vertex="1" parent="1">
          <mxGeometry x="80" y="80" width="140" height="50" as="geometry" />
        </mxCell>
        <mxCell id="ZfUbxT9MrFIy-cwjOznF-34" style="edgeStyle=orthogonalEdgeStyle;rounded=0;orthogonalLoop=1;jettySize=auto;html=1;exitX=0.5;exitY=1;exitDx=0;exitDy=0;entryX=0.5;entryY=0;entryDx=0;entryDy=0;" edge="1" parent="1" source="ZfUbxT9MrFIy-cwjOznF-3" target="ZfUbxT9MrFIy-cwjOznF-4">
          <mxGeometry relative="1" as="geometry" />
        </mxCell>
        <mxCell id="ZfUbxT9MrFIy-cwjOznF-3" value="&lt;br&gt;Does&lt;br&gt;S_CPUDT &amp;amp; S_EBELN&lt;br&gt;&amp;nbsp;are equal both to &lt;br&gt;SPACE?" style="rhombus;whiteSpace=wrap;html=1;fontSize=11;spacingTop=-5;" vertex="1" parent="1">
          <mxGeometry x="80" y="150" width="140" height="90" as="geometry" />
        </mxCell>
        <mxCell id="ZfUbxT9MrFIy-cwjOznF-29" style="edgeStyle=orthogonalEdgeStyle;rounded=0;orthogonalLoop=1;jettySize=auto;html=1;exitX=1;exitY=0.5;exitDx=0;exitDy=0;entryX=0;entryY=0.5;entryDx=0;entryDy=0;" edge="1" parent="1" source="ZfUbxT9MrFIy-cwjOznF-4" target="ZfUbxT9MrFIy-cwjOznF-5">
          <mxGeometry relative="1" as="geometry" />
        </mxCell>
        <mxCell id="ZfUbxT9MrFIy-cwjOznF-4" value="&lt;font style=&quot;font-size: 11px;&quot;&gt;Call FM ZATS_GET_MATDOC&lt;br&gt;&lt;/font&gt;" style="shape=process;whiteSpace=wrap;html=1;backgroundOutline=1;fontSize=11;size=0.041666666666666664;" vertex="1" parent="1">
          <mxGeometry x="80" y="260" width="140" height="50" as="geometry" />
        </mxCell>
        <mxCell id="ZfUbxT9MrFIy-cwjOznF-23" style="edgeStyle=orthogonalEdgeStyle;rounded=0;orthogonalLoop=1;jettySize=auto;html=1;exitX=0.5;exitY=1;exitDx=0;exitDy=0;entryX=0.5;entryY=0;entryDx=0;entryDy=0;" edge="1" parent="1" source="ZfUbxT9MrFIy-cwjOznF-5" target="ZfUbxT9MrFIy-cwjOznF-18">
          <mxGeometry relative="1" as="geometry" />
        </mxCell>
        <mxCell id="ZfUbxT9MrFIy-cwjOznF-5" value="&lt;font style=&quot;font-size: 11px;&quot;&gt;Set File Properties&amp;nbsp;&lt;br&gt;(DBF or DAT)&lt;br&gt;&lt;/font&gt;" style="shape=process;whiteSpace=wrap;html=1;backgroundOutline=1;fontSize=11;size=0;" vertex="1" parent="1">
          <mxGeometry x="280" y="50" width="140" height="50" as="geometry" />
        </mxCell>
        <mxCell id="ZfUbxT9MrFIy-cwjOznF-37" style="edgeStyle=orthogonalEdgeStyle;rounded=0;orthogonalLoop=1;jettySize=auto;html=1;exitX=0.5;exitY=1;exitDx=0;exitDy=0;exitPerimeter=0;entryX=0.5;entryY=0;entryDx=0;entryDy=0;" edge="1" parent="1" source="ZfUbxT9MrFIy-cwjOznF-6" target="ZfUbxT9MrFIy-cwjOznF-8">
          <mxGeometry relative="1" as="geometry" />
        </mxCell>
        <mxCell id="ZfUbxT9MrFIy-cwjOznF-6" value="Process &lt;br&gt;Document Header" style="html=1;dashed=0;whiteSpace=wrap;shape=mxgraph.dfd.loop;fontSize=11;" vertex="1" parent="1">
          <mxGeometry x="470" y="120" width="140" height="50" as="geometry" />
        </mxCell>
        <mxCell id="ZfUbxT9MrFIy-cwjOznF-10" style="edgeStyle=orthogonalEdgeStyle;rounded=0;orthogonalLoop=1;jettySize=auto;html=1;exitX=0.5;exitY=1;exitDx=0;exitDy=0;entryX=0.5;entryY=0;entryDx=0;entryDy=0;" edge="1" parent="1" source="ZfUbxT9MrFIy-cwjOznF-8" target="ZfUbxT9MrFIy-cwjOznF-9">
          <mxGeometry relative="1" as="geometry" />
        </mxCell>
        <mxCell id="ZfUbxT9MrFIy-cwjOznF-8" value="Is DOC_DATE&lt;br&gt;&amp;nbsp;is less than &lt;br&gt;18000101?" style="rhombus;whiteSpace=wrap;html=1;fontSize=11;spacingTop=3;" vertex="1" parent="1">
          <mxGeometry x="470" y="190" width="140" height="90" as="geometry" />
        </mxCell>
        <mxCell id="ZfUbxT9MrFIy-cwjOznF-9" value="&lt;font style=&quot;font-size: 11px;&quot;&gt;Set POSTINGDATE to DOC_DATE&lt;br&gt;&lt;/font&gt;" style="shape=process;whiteSpace=wrap;html=1;backgroundOutline=1;fontSize=11;size=0;" vertex="1" parent="1">
          <mxGeometry x="470" y="300" width="140" height="50" as="geometry" />
        </mxCell>
        <mxCell id="ZfUbxT9MrFIy-cwjOznF-24" style="edgeStyle=orthogonalEdgeStyle;rounded=0;orthogonalLoop=1;jettySize=auto;html=1;exitX=0.5;exitY=1;exitDx=0;exitDy=0;entryX=0.5;entryY=0;entryDx=0;entryDy=0;" edge="1" parent="1" source="ZfUbxT9MrFIy-cwjOznF-18" target="ZfUbxT9MrFIy-cwjOznF-20">
          <mxGeometry relative="1" as="geometry" />
        </mxCell>
        <mxCell id="ZfUbxT9MrFIy-cwjOznF-18" value="&lt;font style=&quot;font-size: 11px;&quot;&gt;Fix Data&lt;br&gt;&lt;/font&gt;" style="shape=process;whiteSpace=wrap;html=1;backgroundOutline=1;fontSize=11;size=0;" vertex="1" parent="1">
          <mxGeometry x="280" y="120" width="140" height="50" as="geometry" />
        </mxCell>
        <mxCell id="ZfUbxT9MrFIy-cwjOznF-19" style="edgeStyle=orthogonalEdgeStyle;rounded=0;orthogonalLoop=1;jettySize=auto;html=1;exitX=1;exitY=0.5;exitDx=0;exitDy=0;entryX=-0.005;entryY=0.493;entryDx=0;entryDy=0;entryPerimeter=0;" edge="1" parent="1" source="ZfUbxT9MrFIy-cwjOznF-18" target="ZfUbxT9MrFIy-cwjOznF-6">
          <mxGeometry relative="1" as="geometry" />
        </mxCell>
        <mxCell id="ZfUbxT9MrFIy-cwjOznF-25" style="edgeStyle=orthogonalEdgeStyle;rounded=0;orthogonalLoop=1;jettySize=auto;html=1;exitX=0.5;exitY=1;exitDx=0;exitDy=0;entryX=0.5;entryY=0;entryDx=0;entryDy=0;" edge="1" parent="1" source="ZfUbxT9MrFIy-cwjOznF-20" target="ZfUbxT9MrFIy-cwjOznF-21">
          <mxGeometry relative="1" as="geometry" />
        </mxCell>
        <mxCell id="ZfUbxT9MrFIy-cwjOznF-20" value="&lt;font style=&quot;font-size: 11px;&quot;&gt;Form DOWNLOAD_HEADER&lt;br&gt;&lt;/font&gt;" style="shape=process;whiteSpace=wrap;html=1;backgroundOutline=1;fontSize=11;size=0.041666666666666664;" vertex="1" parent="1">
          <mxGeometry x="280" y="190" width="140" height="50" as="geometry" />
        </mxCell>
        <mxCell id="ZfUbxT9MrFIy-cwjOznF-35" style="edgeStyle=orthogonalEdgeStyle;rounded=0;orthogonalLoop=1;jettySize=auto;html=1;exitX=0.5;exitY=1;exitDx=0;exitDy=0;entryX=0.5;entryY=0;entryDx=0;entryDy=0;" edge="1" parent="1" source="ZfUbxT9MrFIy-cwjOznF-21" target="ZfUbxT9MrFIy-cwjOznF-26">
          <mxGeometry relative="1" as="geometry" />
        </mxCell>
        <mxCell id="ZfUbxT9MrFIy-cwjOznF-21" value="&lt;font style=&quot;font-size: 11px;&quot;&gt;Form &lt;br&gt;DOWNLOAD_ITEM&lt;br&gt;&lt;/font&gt;" style="shape=process;whiteSpace=wrap;html=1;backgroundOutline=1;fontSize=11;size=0.041666666666666664;" vertex="1" parent="1">
          <mxGeometry x="280" y="260" width="140" height="50" as="geometry" />
        </mxCell>
        <mxCell id="ZfUbxT9MrFIy-cwjOznF-28" style="edgeStyle=orthogonalEdgeStyle;rounded=0;orthogonalLoop=1;jettySize=auto;html=1;exitX=0.5;exitY=1;exitDx=0;exitDy=0;entryX=0.5;entryY=0;entryDx=0;entryDy=0;" edge="1" parent="1" source="ZfUbxT9MrFIy-cwjOznF-26" target="ZfUbxT9MrFIy-cwjOznF-27">
          <mxGeometry relative="1" as="geometry" />
        </mxCell>
        <mxCell id="ZfUbxT9MrFIy-cwjOznF-33" style="edgeStyle=orthogonalEdgeStyle;rounded=0;orthogonalLoop=1;jettySize=auto;html=1;exitX=0;exitY=0.5;exitDx=0;exitDy=0;entryX=0;entryY=0.5;entryDx=0;entryDy=0;" edge="1" parent="1" source="ZfUbxT9MrFIy-cwjOznF-26" target="ZfUbxT9MrFIy-cwjOznF-27">
          <mxGeometry relative="1" as="geometry">
            <Array as="points">
              <mxPoint x="250" y="375" />
              <mxPoint x="250" y="465" />
            </Array>
          </mxGeometry>
        </mxCell>
        <mxCell id="ZfUbxT9MrFIy-cwjOznF-26" value="Is SY-UNAME &lt;br&gt;contains&lt;br&gt;LFBATCH string?" style="rhombus;whiteSpace=wrap;html=1;fontSize=11;spacingTop=-5;" vertex="1" parent="1">
          <mxGeometry x="280" y="330" width="140" height="90" as="geometry" />
        </mxCell>
        <mxCell id="ZfUbxT9MrFIy-cwjOznF-27" value="&lt;font style=&quot;font-size: 11px;&quot;&gt;Call SYST_LOGOFF&lt;br&gt;&lt;/font&gt;" style="shape=process;whiteSpace=wrap;html=1;backgroundOutline=1;fontSize=11;size=0.041666666666666664;" vertex="1" parent="1">
          <mxGeometry x="280" y="440" width="140" height="50" as="geometry" />
        </mxCell>
        <mxCell id="ZfUbxT9MrFIy-cwjOznF-30" value="End" style="html=1;dashed=0;whiteSpace=wrap;shape=mxgraph.dfd.start;fontSize=11;" vertex="1" parent="1">
          <mxGeometry x="280" y="510" width="140" height="40" as="geometry" />
        </mxCell>
        <mxCell id="ZfUbxT9MrFIy-cwjOznF-31" style="edgeStyle=orthogonalEdgeStyle;rounded=0;orthogonalLoop=1;jettySize=auto;html=1;exitX=0.5;exitY=1;exitDx=0;exitDy=0;entryX=0.5;entryY=0.5;entryDx=0;entryDy=-20;entryPerimeter=0;" edge="1" parent="1" source="ZfUbxT9MrFIy-cwjOznF-27" target="ZfUbxT9MrFIy-cwjOznF-30">
          <mxGeometry relative="1" as="geometry" />
        </mxCell>
        <mxCell id="ZfUbxT9MrFIy-cwjOznF-36" style="edgeStyle=orthogonalEdgeStyle;rounded=0;orthogonalLoop=1;jettySize=auto;html=1;exitX=0;exitY=0.5;exitDx=0;exitDy=0;entryX=0;entryY=0.5;entryDx=0;entryDy=0;entryPerimeter=0;" edge="1" parent="1" source="ZfUbxT9MrFIy-cwjOznF-3" target="ZfUbxT9MrFIy-cwjOznF-30">
          <mxGeometry relative="1" as="geometry">
            <Array as="points">
              <mxPoint x="50" y="195" />
              <mxPoint x="50" y="530" />
            </Array>
          </mxGeometry>
        </mxCell>
        <mxCell id="ZfUbxT9MrFIy-cwjOznF-38" style="edgeStyle=orthogonalEdgeStyle;rounded=0;orthogonalLoop=1;jettySize=auto;html=1;exitX=1;exitY=0.5;exitDx=0;exitDy=0;entryX=1;entryY=0.427;entryDx=0;entryDy=0;entryPerimeter=0;" edge="1" parent="1" source="ZfUbxT9MrFIy-cwjOznF-8" target="ZfUbxT9MrFIy-cwjOznF-6">
          <mxGeometry relative="1" as="geometry">
            <Array as="points">
              <mxPoint x="640" y="235" />
              <mxPoint x="640" y="141" />
            </Array>
          </mxGeometry>
        </mxCell>
      </root>
    </mxGraphModel>
  </diagram>
</mxfile>
